<!DOCTYPE svg PUBLIC "-//W3C//DTD SVG 20010904//EN" "http://www.w3.org/TR/2001/REC-SVG-20010904/DTD/svg10.dtd">
<svg version="1.0" xmlns="http://www.w3.org/2000/svg" width="194px" height="194px" viewBox="0 0 1940 1940" preserveAspectRatio="xMidYMid meet">
<g id="layer101" fill="#3c5059" stroke="none">
<path d="M0 970 l0 -970 970 0 970 0 0 970 0 970 -970 0 -970 0 0 -970z"/>
</g>
<g id="layer102" fill="#455962" stroke="none">
<path d="M0 970 l0 -970 970 0 970 0 0 970 0 970 -970 0 -970 0 0 -970z m317 693 c-4 -3 -10 -3 -14 0 -3 4 0 7 7 7 7 0 10 -3 7 -7z m-30 -20 c-4 -3 -7 0 -7 7 0 7 3 10 7 7 3 -4 3 -10 0 -14z m73 13 c0 -11 -19 -15 -25 -6 -3 5 1 10 9 10 9 0 16 -2 16 -4z m726 -4 c-6 -10 -172 -9 -182 1 -4 4 36 7 90 7 53 0 95 -4 92 -8z m-686 -6 c0 -11 -19 -15 -25 -6 -3 5 1 10 9 10 9 0 16 -2 16 -4z m477 -7 c-14 -8 -22 -8 -30 0 -8 8 -3 11 19 11 25 -1 27 -2 11 -11z m255 -1 c-9 -9 -15 -9 -24 0 -9 9 -7 12 12 12 19 0 21 -3 12 -12z m-692 -2 c0 -11 -19 -15 -25 -6 -3 5 1 10 9 10 9 0 16 -2 16 -4z m390 0 c0 -11 -19 -15 -25 -6 -3 5 1 10 9 10 9 0 16 -2 16 -4z m350 0 c0 -11 -19 -15 -25 -6 -3 5 1 10 9 10 9 0 16 -2 16 -4z m-875 -15 c3 -5 1 -12 -5 -16 -5 -3 -10 1 -10 9 0 18 6 21 15 7z m175 5 c0 -11 -19 -15 -25 -6 -3 5 1 10 9 10 9 0 16 -2 16 -4z m307 -3 c-4 -3 -10 -3 -14 0 -3 4 0 7 7 7 7 0 10 -3 7 -7z m420 0 c-4 -3 -10 -3 -14 0 -3 4 0 7 7 7 7 0 10 -3 7 -7z m-687 -7 c0 -11 -19 -15 -25 -6 -3 5 1 10 9 10 9 0 16 -2 16 -4z m230 -6 c-8 -5 -19 -10 -25 -10 -5 0 -3 5 5 10 8 5 20 10 25 10 6 0 3 -5 -5 -10z m487 3 c-4 -3 -10 -3 -14 0 -3 4 0 7 7 7 7 0 10 -3 7 -7z m-663 -12 c13 -5 16 -10 9 -14 -7 -4 -14 -3 -18 3 -4 6 -10 8 -15 5 -5 -3 -11 -1 -15 5 -7 12 11 12 39 1z m726 -11 c22 -11 40 -23 40 -25 0 -5 -79 32 -89 41 -11 10 14 2 49 -16z m-602 -4 c-7 -8 -16 -12 -20 -10 -3 2 -8 -1 -10 -8 -3 -7 -9 -8 -17 -3 -10 6 -6 11 15 21 39 17 47 17 32 0z m-383 -16 c-3 -5 -1 -11 5 -15 6 -4 7 -11 3 -18 -4 -7 -9 -4 -14 9 -11 28 -11 46 1 39 6 -4 8 -10 5 -15z m315 16 c0 -11 -19 -15 -25 -6 -3 5 1 10 9 10 9 0 16 -2 16 -4z m822 -98 c26 -22 62 -58 80 -81 22 -28 11 -20 -32 24 -36 36 -84 78 -107 94 -24 15 -43 30 -43 32 0 8 51 -26 102 -69z m205 30 c-3 -7 -5 -2 -5 12 0 14 2 19 5 13 2 -7 2 -19 0 -25z m-1322 -7 c3 -5 1 -12 -5 -16 -5 -3 -10 1 -10 9 0 18 6 21 15 7z m2 -48 c-4 -3 -7 0 -7 7 0 7 3 10 7 7 3 -4 3 -10 0 -14z m18 -22 c3 -5 1 -12 -5 -16 -5 -3 -10 1 -10 9 0 18 6 21 15 7z m10 -40 c3 -5 1 -12 -5 -16 -5 -3 -10 1 -10 9 0 18 6 21 15 7z m2 -48 c-4 -3 -7 0 -7 7 0 7 3 10 7 7 3 -4 3 -10 0 -14z m1223 -24 c15 -28 5 -23 -15 7 -9 15 -12 23 -6 20 6 -4 16 -16 21 -27z m-1205 2 c3 -5 1 -12 -5 -16 -5 -3 -10 1 -10 9 0 18 6 21 15 7z m-29 -88 c-14 -26 -25 -45 -26 -41 0 12 43 98 48 94 2 -2 -8 -26 -22 -53z m1274 16 c0 -5 -4 -9 -8 -9 -5 0 -9 7 -9 15 0 8 4 12 9 9 4 -3 8 -9 8 -15z m40 -108 c0 -15 -14 -6 -16 10 -1 5 -2 10 -3 12 -2 1 -4 13 -6 27 -3 23 -2 22 10 -5 8 -16 14 -36 15 -44z m-1343 22 c-4 -3 -7 0 -7 7 0 7 3 10 7 7 3 -4 3 -10 0 -14z m-2 -22 c3 -5 1 -12 -5 -16 -5 -3 -10 1 -10 9 0 18 6 21 15 7z m1355 -37 c0 -8 -5 -12 -10 -9 -6 4 -8 11 -5 16 9 14 15 11 15 -7z m-1365 -3 c3 -5 1 -12 -5 -16 -5 -3 -10 1 -10 9 0 18 6 21 15 7z m1375 -53 c0 -16 -3 -19 -11 -11 -6 6 -8 16 -5 22 11 17 16 13 16 -11z m-1389 -25 c-9 -16 -10 -14 -11 12 0 21 3 26 11 18 8 -8 8 -16 0 -30z m1399 -74 c0 -31 -4 -48 -10 -44 -17 11 -12 95 7 95 2 0 3 -23 3 -51z m-1398 -111 c-9 -9 -12 -4 -11 23 0 32 1 33 11 11 8 -17 8 -26 0 -34z m1388 5 c0 -19 -3 -24 -10 -17 -6 6 -8 18 -4 27 9 24 14 21 14 -10z m-1378 -55 c-9 -9 -12 -7 -12 12 0 19 3 21 12 12 9 -9 9 -15 0 -24z m1368 6 c0 -8 -5 -12 -10 -9 -6 4 -8 11 -5 16 9 14 15 11 15 -7z m-1363 -41 c-4 -3 -7 0 -7 7 0 7 3 10 7 7 3 -4 3 -10 0 -14z m1353 1 c0 -8 -5 -12 -10 -9 -6 4 -8 11 -5 16 9 14 15 11 15 -7z m-1343 -31 c-4 -3 -7 0 -7 7 0 7 3 10 7 7 3 -4 3 -10 0 -14z m1324 -20 c-12 -20 -14 -14 -5 12 4 9 9 14 11 11 3 -2 0 -13 -6 -23z m-1301 -28 c0 -5 -5 -3 -10 5 -5 8 -10 20 -10 25 0 6 5 3 10 -5 5 -8 10 -19 10 -25z m1270 -44 c-28 -56 -35 -52 -8 4 12 24 23 43 26 41 2 -2 -6 -22 -18 -45z m-1230 -31 c6 -11 8 -20 6 -20 -3 0 -10 9 -16 20 -6 11 -8 20 -6 20 3 0 10 -9 16 -20z m1200 -24 c0 -3 -5 -8 -12 -12 -7 -4 -8 -3 -4 4 7 12 16 16 16 8z m-1175 -16 c3 -5 4 -10 1 -10 -3 0 -8 5 -11 10 -3 6 -4 10 -1 10 3 0 8 -4 11 -10z m1155 -14 c0 -2 -8 -10 -17 -17 -16 -13 -17 -12 -4 4 13 16 21 21 21 13z m-1029 -129 c43 -38 43 -38 4 -9 -40 30 -77 68 -105 107 -8 12 1 3 21 -19 20 -21 56 -57 80 -79z m933 25 c-62 -58 -134 -112 -134 -99 0 2 24 20 53 40 28 20 72 57 97 82 24 25 47 45 50 45 3 -1 -27 -31 -66 -68z m-869 -72 c3 -5 4 -10 1 -10 -3 0 -8 5 -11 10 -3 6 -4 10 -1 10 3 0 8 -4 11 -10z m75 -46 c0 -2 -13 2 -30 11 -16 9 -30 18 -30 21 0 2 14 -2 30 -11 17 -9 30 -18 30 -21z m625 -4 c-3 -5 -12 -10 -18 -10 -7 0 -6 4 3 10 19 12 23 12 15 0z m-575 -15 c14 -8 21 -14 15 -14 -5 0 -21 6 -35 14 -14 8 -20 14 -15 14 6 0 21 -6 35 -14z m530 -5 c-8 -5 -19 -10 -25 -10 -5 0 -3 5 5 10 8 5 20 10 25 10 6 0 3 -5 -5 -10z m-483 -17 c-4 -3 -10 -3 -14 0 -3 4 0 7 7 7 7 0 10 -3 7 -7z m38 -3 c3 -5 -1 -10 -10 -10 -9 0 -13 5 -10 10 3 6 8 10 10 10 2 0 7 -4 10 -10z m370 0 c3 -5 -1 -10 -10 -10 -9 0 -13 5 -10 10 3 6 8 10 10 10 2 0 7 -4 10 -10z m32 3 c-4 -3 -10 -3 -14 0 -3 4 0 7 7 7 7 0 10 -3 7 -7z m-347 -19 c0 -2 -9 -4 -21 -4 -11 0 -18 4 -14 10 5 8 35 3 35 -6z m275 6 c3 -6 -4 -10 -17 -10 -18 0 -20 2 -8 10 19 12 18 12 25 0z m-210 -10 c16 -7 12 -9 -18 -9 -23 -1 -36 3 -32 9 7 12 23 12 50 0z m160 0 c4 -6 -9 -10 -32 -9 -34 1 -35 2 -13 9 35 11 38 11 45 0z"/>
</g>
<g id="layer103" fill="#36b649" stroke="none">
<path d="M300 1647 c0 -5 21 -84 46 -175 l46 -164 -25 -57 c-88 -198 -87 -400 3 -586 87 -179 228 -302 414 -361 171 -54 344 -40 511 41 417 201 515 758 192 1088 -117 120 -245 184 -414 207 -123 16 -274 -9 -380 -63 -28 -15 -39 -13 -211 32 -100 26 -182 43 -182 38z"/>
</g>
<g id="layer104" fill="#37b74a" stroke="none">
<path d="M300 1647 c0 -5 21 -84 46 -175 l46 -164 -25 -57 c-88 -198 -87 -400 3 -586 87 -179 228 -302 414 -361 171 -54 344 -40 511 41 417 201 515 758 192 1088 -117 120 -245 184 -414 207 -123 16 -274 -9 -380 -63 -28 -15 -39 -13 -211 32 -100 26 -182 43 -182 38z m868 -152 c138 -44 263 -149 328 -277 26 -51 33 -81 8 -35 -9 16 -20 25 -26 21 -8 -5 -9 -1 -4 11 5 15 4 16 -9 5 -12 -10 -19 -10 -27 -2 -16 16 -51 16 -42 0 4 -7 4 -10 -1 -6 -4 4 -15 2 -23 -5 -13 -10 -14 -9 -7 2 6 10 4 12 -4 7 -8 -5 -11 -22 -7 -50 l5 -41 -12 40 c-17 55 -26 69 -71 99 -98 66 -296 5 -462 -144 -28 -25 -17 -12 25 29 42 41 71 72 64 68 -6 -4 -30 -3 -52 2 -24 5 -41 5 -41 0 0 -5 -16 -7 -35 -4 -20 2 -35 0 -35 -6 0 -6 -6 -7 -12 -3 -7 5 -27 7 -45 5 -17 -1 -41 3 -52 9 -15 8 -21 8 -21 0 0 -7 -14 -9 -40 -5 -55 8 -76 0 -90 -36 -7 -16 -15 -27 -18 -24 -3 2 10 34 28 70 l33 65 -27 93 c-14 51 -26 95 -26 99 0 3 47 -7 104 -22 l104 -28 32 19 c118 72 311 91 458 44z m359 -362 c-4 -3 -7 0 -7 7 0 7 3 10 7 7 3 -4 3 -10 0 -14z m-1070 -10 c-4 -3 -7 0 -7 7 0 7 3 10 7 7 3 -4 3 -10 0 -14z m649 -25 l29 -33 -32 29 c-31 28 -38 36 -30 36 2 0 16 -15 33 -32z m244 18 c0 -3 -5 -8 -12 -12 -7 -4 -8 -3 -4 4 7 12 16 16 16 8z m187 -13 c-4 -3 -7 0 -7 7 0 7 3 10 7 7 3 -4 3 -10 0 -14z m-1090 -10 c-4 -3 -7 0 -7 7 0 7 3 10 7 7 3 -4 3 -10 0 -14z m533 -17 c0 -3 -5 -8 -12 -12 -7 -4 -8 -3 -4 4 7 12 16 16 16 8z m567 -18 c-3 -8 -6 -5 -6 6 -1 11 2 17 5 13 3 -3 4 -12 1 -19z m-1110 -5 c-4 -3 -7 0 -7 7 0 7 3 10 7 7 3 -4 3 -10 0 -14z m323 3 c0 -2 -8 -10 -17 -17 -16 -13 -17 -12 -4 4 13 16 21 21 21 13z m180 -9 c0 -2 -17 -19 -37 -38 l-38 -34 34 38 c33 34 41 42 41 34z"/>
</g>
<g id="layer105" fill="#58c964" stroke="none">
<path d="M300 1647 c0 -5 21 -84 46 -175 l46 -164 -25 -57 c-88 -198 -87 -400 3 -586 87 -179 228 -302 414 -361 171 -54 344 -40 511 41 417 201 515 758 192 1088 -117 120 -245 184 -414 207 -123 16 -274 -9 -380 -63 -28 -15 -39 -13 -211 32 -100 26 -182 43 -182 38z m773 -128 c191 -30 341 -139 429 -312 39 -78 74 -239 60 -281 l-10 -31 -1 36 -1 37 -94 -2 c-52 0 -92 2 -90 6 3 4 -3 5 -12 1 -22 -8 -67 -9 -80 0 -12 7 -41 4 -50 -6 -4 -4 -13 -2 -20 4 -8 7 -14 7 -19 -1 -3 -6 -11 -8 -16 -5 -5 4 -9 1 -9 -5 0 -6 -5 -8 -10 -5 -6 4 -8 9 -6 13 2 4 -7 7 -20 7 -13 0 -24 -3 -24 -7 0 -4 -12 -5 -27 -3 -16 2 -28 4 -28 5 0 1 -10 3 -22 4 -13 2 -23 0 -23 -3 0 -3 -29 -5 -66 -4 -63 2 -66 1 -84 -30 -19 -31 -19 -31 3 -57 l22 -25 -27 24 -28 24 23 40 c42 75 203 196 240 181 7 -3 25 -23 41 -44 17 -22 38 -40 48 -40 10 0 55 18 99 41 l81 40 -7 37 c-13 79 -79 132 -162 132 -98 0 -247 -64 -340 -145 -55 -48 -147 -165 -181 -230 -12 -22 -21 -35 -21 -30 0 6 6 21 14 35 14 25 21 75 7 54 -8 -12 -40 -12 -60 0 -6 4 -12 4 -12 -1 0 -4 -24 -8 -53 -9 -100 -2 -105 -3 -111 -26 -3 -13 -3 12 0 54 6 92 25 163 66 239 l29 56 -25 94 c-14 52 -26 97 -26 101 0 4 47 -6 104 -21 l103 -28 38 22 c42 26 122 53 192 65 70 11 86 11 166 -1z m-636 -656 c-3 -10 -5 -4 -5 12 0 17 2 24 5 18 2 -7 2 -21 0 -30z m200 -15 c-3 -8 -6 -5 -6 6 -1 11 2 17 5 13 3 -3 4 -12 1 -19z m910 0 c-3 -8 -6 -5 -6 6 -1 11 2 17 5 13 3 -3 4 -12 1 -19z"/>
<path d="M575 1000 c-3 -6 1 -7 9 -4 18 7 21 14 7 14 -6 0 -13 -4 -16 -10z"/>
<path d="M1530 990 c0 -7 3 -10 7 -7 3 4 3 10 0 14 -4 3 -7 0 -7 -7z"/>
<path d="M1284 978 c-4 -7 -3 -8 4 -4 12 7 16 16 8 16 -3 0 -8 -5 -12 -12z"/>
</g>
<g id="layer106" fill="#fdfdfd" stroke="none">
<path d="M1447 1922 c-15 -16 -17 -46 -17 -208 0 -135 4 -194 12 -202 8 -8 47 -12 111 -12 l98 0 -3 28 c-3 27 -4 27 -80 30 l-78 3 0 159 0 160 160 0 159 0 3 -62 c3 -60 4 -63 31 -66 l27 -3 0 85 c0 74 -3 87 -19 96 -12 6 -96 10 -204 10 -165 0 -186 -2 -200 -18z"/>
<path d="M1577 1792 c-10 -10 -17 -23 -17 -28 0 -5 56 -65 125 -134 l125 -124 -22 -23 c-38 -40 -19 -54 69 -51 l78 3 3 78 c3 88 -11 107 -51 69 l-23 -22 -124 125 c-69 69 -130 125 -136 125 -6 0 -18 -8 -27 -18z"/>
<path d="M300 1647 c0 -5 21 -84 46 -175 l46 -164 -25 -57 c-88 -198 -87 -400 3 -586 87 -179 228 -302 414 -361 171 -54 344 -40 511 41 417 201 515 758 192 1088 -117 120 -245 184 -414 207 -123 16 -274 -9 -380 -63 -28 -15 -39 -13 -211 32 -100 26 -182 43 -182 38z m825 -132 c109 -28 184 -72 270 -159 121 -121 169 -237 168 -401 -1 -103 -15 -162 -60 -254 -70 -140 -213 -255 -373 -296 -87 -23 -241 -16 -324 14 -182 65 -324 217 -371 397 -19 75 -19 213 0 289 9 32 30 87 48 121 l33 61 -27 99 c-15 54 -26 101 -24 103 3 2 51 -8 107 -22 l103 -26 60 29 c33 17 85 36 115 44 73 19 201 20 275 1z"/>
<path d="M1100 1275 c-148 -41 -282 -139 -379 -279 -82 -120 -99 -191 -62 -272 25 -56 66 -86 110 -82 38 3 46 14 91 127 20 52 21 50 -32 123 -17 23 3 59 73 129 52 53 141 109 173 109 8 0 32 -21 54 -47 l40 -46 87 41 88 42 -6 41 c-7 53 -28 82 -73 104 -51 24 -100 27 -164 10z"/>
</g>


</svg>